<?xml version="1.0" encoding="utf-8"?>
<!-- Generator: Adobe Illustrator 16.0.0, SVG Export Plug-In . SVG Version: 6.00 Build 0)  -->
<!DOCTYPE svg PUBLIC "-//W3C//DTD SVG 1.1//EN" "http://www.w3.org/Graphics/SVG/1.1/DTD/svg11.dtd">
<svg version="1.1" id="Capa_1" xmlns="http://www.w3.org/2000/svg" xmlns:xlink="http://www.w3.org/1999/xlink" x="0px" y="0px"
	 width="595.279px" height="595.28px" viewBox="0 123.305 595.279 595.28" enable-background="new 0 123.305 595.279 595.28"
	 xml:space="preserve">
<g>
	<g>
		<path fill="#FFFFFF" d="M525.521,123.305H69.759C31.294,123.305,0,154.599,0,193.064v455.762
			c0,38.465,31.294,69.759,69.759,69.759h455.762c38.465,0,69.759-31.294,69.759-69.759V193.064
			C595.28,154.599,563.986,123.305,525.521,123.305z M548.774,648.826c0,12.821-10.432,23.253-23.253,23.253H392.978V482.565h71.841
			l11.87-72.084h-83.711v-49.995c0-19.736,15.144-34.879,34.88-34.879h47.669v-72.085h-47.669
			c-59.206,0-106.939,47.959-106.939,107.167v49.792h-69.784v72.084h69.784v189.514H69.759c-12.821,0-23.253-10.432-23.253-23.253
			V193.064c0-12.822,10.432-23.253,23.253-23.253h455.762c12.821,0,23.253,10.432,23.253,23.253V648.826z"/>
	</g>
</g>
</svg>
