<?xml version="1.0" encoding="utf-8"?>
<!-- Generator: Adobe Illustrator 16.0.0, SVG Export Plug-In . SVG Version: 6.00 Build 0)  -->
<!DOCTYPE svg PUBLIC "-//W3C//DTD SVG 1.1//EN" "http://www.w3.org/Graphics/SVG/1.1/DTD/svg11.dtd">
<svg version="1.1" id="Layer_1" xmlns="http://www.w3.org/2000/svg" xmlns:xlink="http://www.w3.org/1999/xlink" x="0px" y="0px"
	 width="105px" height="281px" viewBox="339.445 159.138 105 281" enable-background="new 339.445 159.138 105 281"
	 xml:space="preserve">
<path fill="none" stroke="#282829" stroke-width="5" d="M379.531,411.137c7.342-20.551,22.45-36.283,31.946-52.214
	c24.066-40.394-9.808-60.973-26.617-81.439c-16.299-19.814-25.767-47.934,10.856-102.076"/>
<path fill="none" stroke="#282829" stroke-width="5" d="M410.768,411.137c-7.342-20.551-22.45-36.283-31.946-52.214
	c-24.065-40.394,9.78-60.973,26.617-81.439c16.3-19.814,25.455-49.294-11.622-102.047"/>
<line fill="none" stroke="#282829" stroke-width="5" x1="394.498" y1="177.364" x2="394.611" y2="384.747"/>
<line fill="none" stroke="#282829" stroke-width="5" x1="376.413" y1="208.687" x2="394.894" y2="239.414"/>
<line fill="none" stroke="#282829" stroke-width="5" x1="394.3" y1="215.206" x2="406.573" y2="196.469"/>
<line fill="none" stroke="#282829" stroke-width="5" x1="394.526" y1="253.701" x2="415.871" y2="219.543"/>
<line fill="none" stroke="#282829" stroke-width="5" x1="370.659" y1="235.417" x2="394.158" y2="274.365"/>
<line fill="none" stroke="#282829" stroke-width="5" x1="385.172" y1="298.177" x2="394.809" y2="312.974"/>
<line fill="none" stroke="#282829" stroke-width="5" x1="394.753" y1="326.324" x2="409.011" y2="304.583"/>
<line fill="none" stroke="#282829" stroke-width="5" x1="394.413" y1="361.673" x2="418.479" y2="324.028"/>
<line fill="none" stroke="#282829" stroke-width="5" x1="373.748" y1="315.128" x2="394.356" y2="347.556"/>
<line fill="none" stroke="#282829" stroke-width="5" x1="394.753" y1="281.424" x2="418.593" y2="250.384"/>
</svg>
