<?xml version="1.0" encoding="utf-8"?>
<!-- Generator: Adobe Illustrator 16.0.0, SVG Export Plug-In . SVG Version: 6.00 Build 0)  -->
<!DOCTYPE svg PUBLIC "-//W3C//DTD SVG 1.1//EN" "http://www.w3.org/Graphics/SVG/1.1/DTD/svg11.dtd">
<svg version="1.1" id="Layer_1" xmlns="http://www.w3.org/2000/svg" xmlns:xlink="http://www.w3.org/1999/xlink" x="0px" y="0px"
	 width="204px" height="258.667px" viewBox="0 0 204 258.667" enable-background="new 0 0 204 258.667" xml:space="preserve">
<polygon fill="#FFFFFF" points="25.703,10.416 10.143,10.416 10.143,248.837 25.703,248.837 25.703,131.596 120.068,131.596 
	120.068,248.837 135.631,248.837 135.631,10.416 120.068,10.416 120.068,118.359 25.703,118.359 "/>
<path fill="none" stroke="#FFFFFF" stroke-width="5" d="M156.748,247.761c7.342-20.523,22.422-36.256,31.947-52.215
	c24.037-40.395-9.809-60.975-26.617-81.411c-16.299-19.813-25.795-47.935,10.855-102.075"/>
<path fill="none" stroke="#FFFFFF" stroke-width="5" d="M187.986,247.761c-7.369-20.523-22.451-36.256-31.977-52.215
	c-24.035-40.395,9.811-60.975,26.617-81.411c16.301-19.843,25.484-49.323-11.594-102.075"/>
<line fill="none" stroke="#FFFFFF" stroke-width="5" x1="171.715" y1="13.988" x2="171.828" y2="221.398"/>
<line fill="none" stroke="#FFFFFF" stroke-width="5" x1="153.631" y1="45.31" x2="172.111" y2="76.066"/>
<line fill="none" stroke="#FFFFFF" stroke-width="5" x1="171.488" y1="51.859" x2="183.762" y2="33.121"/>
<line fill="none" stroke="#FFFFFF" stroke-width="5" x1="171.744" y1="90.324" x2="193.088" y2="56.195"/>
<line fill="none" stroke="#FFFFFF" stroke-width="5" x1="147.877" y1="72.041" x2="171.375" y2="111.017"/>
<line fill="none" stroke="#FFFFFF" stroke-width="5" x1="162.391" y1="134.8" x2="172.027" y2="149.626"/>
<line fill="none" stroke="#FFFFFF" stroke-width="5" x1="171.971" y1="162.949" x2="186.23" y2="141.236"/>
<line fill="none" stroke="#FFFFFF" stroke-width="5" x1="171.631" y1="198.326" x2="195.697" y2="160.68"/>
<line fill="none" stroke="#FFFFFF" stroke-width="5" x1="150.965" y1="151.781" x2="171.574" y2="184.179"/>
<line fill="none" stroke="#FFFFFF" stroke-width="5" x1="171.971" y1="118.048" x2="195.811" y2="87.037"/>
</svg>
