<?xml version="1.0" encoding="utf-8"?>
<!-- Generator: Adobe Illustrator 16.0.0, SVG Export Plug-In . SVG Version: 6.00 Build 0)  -->
<!DOCTYPE svg PUBLIC "-//W3C//DTD SVG 1.1//EN" "http://www.w3.org/Graphics/SVG/1.1/DTD/svg11.dtd">
<svg version="1.1" id="Layer_1" xmlns="http://www.w3.org/2000/svg" xmlns:xlink="http://www.w3.org/1999/xlink" x="0px" y="0px"
	 width="1190.551px" height="841.89px" viewBox="0 0 1190.551 841.89" enable-background="new 0 0 1190.551 841.89"
	 xml:space="preserve">
<g id="Capa_x0020_1">
	<g>
		<path fill="none" stroke="#FEFEFE" stroke-miterlimit="10" d="M717.08,145.389v1.247l-48.387,4.96l2.296,54.312
			c5.414,0.624,14.797-0.198,22.79-0.907c3.572-0.312,6.889-0.595,9.524-0.737c4.224-0.198,8.561-0.482,12.897-0.766l0.879-0.057
			v1.248l-0.793,0.057c-4.31,0.283-8.59,0.567-12.927,0.765c-2.522,0.142-5.867,0.425-9.468,0.737
			c-8.334,0.737-18.113,1.587-23.584,0.85c-0.312-0.057-0.538-0.312-0.538-0.624l-2.354-55.417c-0.028-0.34,0.228-0.624,0.567-0.652
			L717.08,145.389z M717.08,218.438v103.351l-36.028-0.113c-0.623-5.216-3.77-39.175-5.98-66.132
			c-1.333-16.214-2.354-29.906-2.269-33.222c2.722-0.567,17.065-1.843,31.947-2.977C708.889,219.033,713.083,218.721,717.08,218.438
			z M717.08,331.568v1.248l-35.008-0.34c0.085,4.309,0.681,14.372,1.446,23.329c0.566,6.463,1.247,12.331,1.87,14.938l31.691,0.028
			v1.248l-32.173-0.028c-0.283,0-0.539-0.199-0.596-0.454l0,0c-0.708-2.41-1.417-8.674-2.041-15.647
			c-0.821-9.411-1.417-20.098-1.445-24.038c0-0.34,0.283-0.624,0.624-0.624l0,0h0.028L717.08,331.568z M587.792,372.473
			c-0.028,0.17-0.113,0.312-0.255,0.396c-0.255,0.227-0.652,0.17-0.879-0.113c-0.142-0.198-0.425-0.369-0.623-0.482l-0.058-0.028
			c-0.142-0.085-0.255-0.17-0.368-0.255c-0.028-0.028-0.028-0.085-0.057-0.114c-1.275-2.239-1.615-8.929-1.843-13.408
			c-0.057-1.105-0.085-2.069-0.142-2.806c-0.142-1.814-0.255-3.855-0.368-6.01c-0.312-5.386-0.652-11.423-1.446-16.044
			c-5.782-1.36-57.004-0.936-72.283-0.793l-3.43,0.028l2.92,49.294h-1.248l-2.976-49.89c-0.028-0.34,0.255-0.624,0.595-0.652h0.028
			l0,0c0.794,0,2.098,0,4.11-0.028c15.647-0.142,69.023-0.595,73.049,0.964c0.227,0.085,0.369,0.255,0.396,0.482l0,0
			c0.879,4.762,1.22,10.999,1.531,16.583c0.113,2.098,0.227,4.11,0.368,5.953c0.028,0.708,0.085,1.701,0.142,2.834
			c0.228,4.337,0.539,10.771,1.645,12.812v-0.028c0,0,0,0,0.028,0l0.028,0.028l0.142,0.085 M492.52,382.139h-1.247
			c-0.17-3.884-0.624-8.447-1.021-12.586c-0.34-3.487-0.652-6.633-0.766-8.844c-0.198-5.074-0.623-10.176-1.049-15.335
			c-0.368-4.309-0.708-8.674-0.964-13.181c-7.029,0.227-31.663,1.757-51.618,3.373c-13.012,1.049-24.01,2.126-26.703,2.863
			l3.062,43.71h-1.247l-3.09-44.107c-0.028-0.312,0.17-0.567,0.426-0.652c1.984-0.765,13.605-1.927,27.468-3.061
			c20.551-1.645,46.147-3.232,52.271-3.374c0.34,0,0.623,0.255,0.652,0.595l0,0c0.255,4.621,0.623,9.185,0.991,13.748
			c0.426,5.131,0.822,10.205,1.049,15.364c0.114,2.183,0.426,5.329,0.737,8.788C491.896,373.606,492.35,378.198,492.52,382.139z
			 M402.095,382.139h-1.247l-3.572-41.896c-4.195-0.709-24.236,0.878-42.888,2.381c-13.323,1.049-25.966,2.069-31.691,2.126
			l2.041,30.331l0,0c0,0.085,0.227,0.794,0.425,1.106c0.198,0.368,0.17,0.765,0.085,1.502l0,0c-0.085,0.681-0.198,1.673-0.198,3.175
			c0,0.369,0,0.794,0,1.276h-1.247c0-0.482,0-0.907,0-1.276c0-1.587,0.198-3.345,0.198-3.345s-1.701-3.997-0.567-3.43l-2.04-29.906
			c-0.029-0.34,0.227-0.652,0.566-0.68c0.028,0,0.057,0,0.085,0c5.329,0.028,18.397-1.021,32.259-2.126
			c19.445-1.559,40.422-3.231,43.738-2.239c0.255,0.085,0.425,0.283,0.453,0.539l0,0L402.095,382.139z M315.694,382.139h-1.247
			l-2.098-36c-2.154,0.028-11.168,0.624-22.762,1.417v-1.247c13.068-0.907,22.875-1.502,23.471-1.389
			c0.283,0.057,0.51,0.312,0.51,0.624L315.694,382.139z M289.587,338.74v-1.247v-15.591v-63.921v-5.953v-0.708v-2.268l0.539-0.85
			c1.021-1.644,1.786-2.863,3.203-4.592c0.113-0.142,0.284-0.198,0.425-0.227h0.028l0,0c0.567-0.057,1.275-0.113,2.013-0.199
			c1.474-0.142,2.976-0.312,4.422-0.396c0.028,0,0.057,0,0.085,0l0,0l5.216,0.425c0.057,0,0.085,0,0.142,0.029
			c0.114,0.028,0.284,0.057,0.425,0.113h0.028c0.142,0.028,0.283,0.085,0.368,0.113c0.256,0.113,0.397,0.34,0.397,0.595
			c0.142,2.211,0.425,6.52,0.822,12.104c1.7,25.171,5.158,75.997,3.883,79.597c-0.057,0.17-0.198,0.312-0.368,0.369
			C309.799,336.699,301.04,337.663,289.587,338.74z M289.43,229.265c0.729-0.805,1.98-2.432,4.315-5.72l0.019-0.018l33.665-47.849
			l0.019-0.018c0.617-0.876,1.29-1.877,1.981-2.932c0.672-1.019,1.382-2.073,2.073-3.074L289.43,229.265z M297.156,220.762
			c-4.337,6.378-6.378,8.986-7.568,10.091L297.156,220.762z M296.164,220.025c0.199-0.255,0.567-0.312,0.851-0.142L296.164,220.025z
			 M297.184,220.734l-0.028,0.028L297.184,220.734z M656.164,141.364c-0.057,0.227-0.256,0.425-0.511,0.454L656.164,141.364z
			 M289.587,337.493c10.715-1.021,18.992-1.928,20.891-2.438c0.964-5.159-2.353-54.227-4.025-78.803
			c-0.368-5.216-0.651-9.326-0.793-11.735c-0.113-0.028-0.198-0.057-0.283-0.057l-5.131-0.425c-1.417,0.085-2.891,0.255-4.337,0.397
			c-0.567,0.057-1.134,0.113-1.757,0.17c-1.276,1.559-2.013,2.721-2.977,4.28c-0.312,0.482-0.652,1.021-1.049,1.644v0.028
			L289.587,337.493z M290.098,250.583l-0.51,0.737L290.098,250.583z M321.789,334.347c-0.539-1.956-2.324-23.159-3.912-44.589
			c-1.644-22.28-3.118-44.844-2.834-46.488c0.028-0.199,0.142-0.369,0.312-0.454l0,0h0.028l0,0
			c1.899-1.021,15.647-2.211,30.926-3.175c19.814-1.248,42.265-2.098,44.759-1.616c0.228,0.028,0.397,0.198,0.454,0.425
			c0.68,1.814,1.984,16.866,3.26,34.243c1.729,23.301,3.43,50.854,3.43,55.843c0,0.312-0.255,0.595-0.595,0.624l0,0l-75.146,5.697
			C322.129,334.856,321.874,334.658,321.789,334.347z M319.124,289.672c1.503,20.296,3.175,40.365,3.771,43.88l74.069-5.613
			c-0.113-6.208-1.758-32.626-3.43-55.162c-1.219-16.526-2.438-30.926-3.09-33.59c-3.714-0.34-25.087,0.51-44.051,1.701
			c-14.514,0.907-27.609,2.013-30.132,2.891C316.148,246.954,317.537,268.441,319.124,289.672z M392.4,224.391h-0.028h0.057
			c0.34-0.028,0.595-0.34,0.538-0.68l-6.236-49.663l0,0c-0.028-0.312-0.312-0.567-0.623-0.567
			c-3.09,0.057-20.523,0.595-33.364,1.502c-7.313,0.511-13.181,1.191-14.314,1.984c-0.936,0.681-3.516,4.762-5.415,7.824
			c-0.765,1.219-1.445,2.268-1.813,2.834l-0.766,1.105c-9.042,13.209-18.255,26.703-26.844,39.969
			c-0.085,0.113-0.113,0.227-0.113,0.369c0.028,0.368,0.312,0.624,0.652,0.595l88.243-5.272H392.4z M305.292,228.331l86.372-5.13
			l-6.095-48.444c-4.224,0.085-20.522,0.595-32.74,1.474c-7.115,0.51-12.756,1.105-13.663,1.757
			c-0.736,0.539-3.231,4.507-5.103,7.455c-0.765,1.248-1.445,2.325-1.842,2.892l-0.766,1.105
			C322.668,202.309,313.682,215.461,305.292,228.331z M428.684,172.29l-31.011,1.729L428.684,172.29z M429.874,171.581
			L429.874,171.581L429.874,171.581z M433.445,220.621l-4.762-48.331L433.445,220.621z M403.963,222.066l29.475-1.446
			L403.963,222.066z M444.274,220.536c-0.143-4.592-1.049-11.877-1.984-19.531c-1.446-11.792-3.033-24.548-2.154-30.076
			c0.057-0.284,0.283-0.482,0.566-0.51l0,0c1.247-0.113,2.381-0.227,3.714-0.34c9.383-0.878,27.184-2.551,31.691-0.907
			c0.227,0.085,0.396,0.312,0.396,0.539l0,0l3.401,48.784c0.028,0.34-0.227,0.652-0.566,0.68h-0.057l-34.356,1.984
			c-0.34,0.028-0.623-0.255-0.651-0.595V220.536z M443.537,200.863c0.907,7.342,1.758,14.315,1.956,19.021l33.137-1.927
			l-3.345-47.735c-4.819-1.333-21.742,0.255-30.756,1.105c-1.304,0.113-2.467,0.227-3.231,0.283
			C440.617,177.222,442.12,189.468,443.537,200.863z M322.186,374.854 M321.137,374.23L321.137,374.23L321.137,374.23z
			 M320.882,374.684 M319.748,376.866L319.748,376.866 M319.323,376.753 M316.006,371.622h0.028H316.006z M407.622,327.458
			c-0.709-2.069-1.758-12.812-2.835-26.249c-1.984-24.605-4.11-58.309-4.394-63.099c0-0.34,0.227-0.624,0.567-0.681
			c2.522-0.595,22.79-2.324,42.265-3.77c17.631-1.275,34.639-2.324,37.389-2.041c0.283,0.028,0.481,0.227,0.538,0.481l0,0
			c0.652,2.551,2.183,21.005,3.629,40.507c1.672,23.131,3.203,47.764,2.863,48.869c-0.028,0.199-0.171,0.34-0.312,0.397
			c-0.255,0.142-0.34,0.227-0.396,0.255v0.028l0,0c-0.113,0.057-0.17,0.114-0.312,0.17c-0.143,0.057-0.284,0.085-0.624,0.17l0,0
			l-0.822,0.17l0,0c-0.34,0.085-0.766,0.17-1.219,0.255s-0.907,0.142-1.304,0.17c-1.219,0.142-2.381,0.142-3.486,0.17l0,0h-0.028
			c-0.482,0-0.936,0-1.418,0.028c-2.239,0.057-4.535,0.283-6.803,0.539c-1.049,0.113-2.069,0.227-3.203,0.312
			c-6.662,0.624-24.974,2.041-39.601,2.948c-9.638,0.595-17.744,0.992-19.956,0.793
			C407.905,327.855,407.707,327.685,407.622,327.458L407.622,327.458z M406.034,301.125c1.021,12.614,1.984,22.819,2.665,25.54
			c2.636,0.113,10.29-0.255,19.36-0.822c14.684-0.907,32.938-2.325,39.544-2.92c0.992-0.113,2.069-0.227,3.175-0.34
			c2.296-0.227,4.592-0.482,6.916-0.539c0.454-0.028,0.964-0.028,1.446-0.028l0,0c1.105-0.028,2.211-0.028,3.373-0.142
			c0.368-0.057,0.821-0.113,1.247-0.198c0.396-0.057,0.794-0.142,1.134-0.227l0,0l0,0l0.822-0.17l0,0l0,0
			c0.255-0.057,0.368-0.085,0.425-0.113l0,0l0,0h0.028l0,0c0.028-0.028-0.028,0,0,0c0.057-0.057,0.142-0.114,0.312-0.227
			c0.143-2.608-1.332-26.079-2.947-48.246c-1.361-18.539-2.807-36.142-3.487-39.855c-3.77-0.142-19.955,0.85-36.708,2.069
			c-19.021,1.389-38.722,3.062-41.67,3.6C402.066,244.771,404.107,277.172,406.034,301.125z M486.142,321.166h0.028H486.142z
			 M594.057,369.553l-1.814-36.793c-0.028-0.34,0.228-0.652,0.567-0.652h0.085l78.35-0.396c0.34,0,0.624,0.255,0.624,0.567h0.028
			l3.345,39.43c0.028,0.34-0.228,0.652-0.567,0.68c-0.028,0-0.057,0-0.085,0c-6.208,0.028-12.671,0.17-19.219,0.312
			c-14.229,0.34-28.828,0.652-41.868-0.085c-5.867-0.312-9.836,0-12.528,0.198c-4.734,0.397-6.038,0.482-6.889-3.118
			C594.085,369.638,594.057,369.581,594.057,369.553z M593.519,333.354l1.785,36.113c0.624,2.495,1.701,2.409,5.556,2.098
			c2.75-0.199,6.747-0.539,12.699-0.199c13.012,0.737,27.582,0.425,41.783,0.085c6.321-0.142,12.586-0.284,18.596-0.312
			l-3.261-38.183L593.519,333.354z M592.838,332.107h0.057H592.838z M717.08,323.036l-36.595-0.113
			c-0.312,0-0.567-0.255-0.624-0.539l0,0c-0.368-2.665-3.713-38.523-6.038-66.728c-1.417-17.121-2.466-31.436-2.239-33.846
			c0-0.284,0.227-0.51,0.482-0.567c1.842-0.567,16.951-1.956,32.598-3.146c4.167-0.34,8.391-0.652,12.416-0.907V323.036z
			 M580.733,323.121c-4.479,0.397-27.014,0.51-46.317,0.255c-14.825-0.17-27.752-0.567-29.311-1.219
			c-0.198-0.085-0.312-0.255-0.368-0.453c-0.709-2.41-2.807-24.321-4.593-45.921c-1.729-20.948-3.203-41.669-2.862-44.221
			c0.028-0.312,0.312-0.539,0.595-0.539c6.775-0.255,13.578-0.737,20.353-1.19c5.783-0.425,11.565-0.822,17.434-1.077l0.028-0.028
			l37.36-0.964c0.198,0,0.369,0.085,0.482,0.199l0,0l0,0c0.085,0.113,0.142,0.255,0.142,0.396c0,0.114,0,0.227-0.057,0.312
			c0.623,5.357,4.535,40.819,6.633,66.586c1.162,14.201,1.758,25.54,1.021,27.468C581.188,322.951,580.989,323.121,580.733,323.121
			L580.733,323.121z M534.444,322.129c18.68,0.227,40.422,0.142,45.779-0.227c0.481-2.58-0.142-13.266-1.219-26.532
			c-2.154-26.561-6.038-63.156-6.378-66.359l-36.907,0.992l0,0c-5.782,0.255-11.594,0.652-17.405,1.077
			c-6.576,0.454-13.152,0.907-19.842,1.163c-0.113,4.053,1.275,23.612,2.92,43.427c1.729,20.948,3.741,42.123,4.479,45.411
			C508.195,321.619,520.441,321.959,534.444,322.129z M592.355,322.271L592.355,322.271c-0.028,0-0.057-0.028-0.085-0.028
			l-0.028-0.028h-0.028c-2.211-1.389-3.062-16.243-3.345-21.458c-0.057-0.595-0.057-1.077-0.085-1.417
			c-0.34-4.734-1.134-13.124-2.041-22.62c-1.928-20.296-4.337-45.61-3.543-50.429c0.057-0.283,0.312-0.51,0.595-0.51l0,0l77.5-4.507
			c0.312,0,0.595,0.227,0.651,0.51c1.077,4.819,2.098,18.68,3.033,31.379c0.596,7.965,1.162,15.477,1.673,19.928v0.028l0,0
			l3.826,47.423c0,0.114-0.028,0.199-0.057,0.284c-1.049,3.515-2.92,3.401-9.978,2.977c-2.324-0.17-5.216-0.34-8.816-0.425
			c-1.304-0.057-2.636-0.085-3.968-0.142c-1.305-0.029-2.608-0.057-3.912-0.114l-5.244,0.595c-0.057,0.057-0.113,0.114-0.17,0.142
			l0,0c-0.085,0.085-0.17,0.142-0.227,0.198c-0.143,0.085-0.284,0.113-0.397,0.113l-45.184-1.871
			C592.47,322.299,592.412,322.299,592.355,322.271L592.355,322.271z M590.116,300.671c0.284,5.074,1.105,19.559,2.58,20.381
			l44.815,1.871c0.113-0.113,0.255-0.227,0.396-0.312c0.086-0.057,0.171-0.085,0.284-0.113l5.442-0.624l0,0c0.028,0,0.057,0,0.085,0
			c1.36,0.028,2.665,0.085,3.969,0.113c1.332,0.057,2.664,0.085,3.997,0.113c3.656,0.114,6.52,0.284,8.815,0.454
			c6.236,0.369,7.937,0.482,8.702-2.013l-3.799-47.338c-0.51-4.479-1.077-11.991-1.672-19.956
			c-0.907-12.217-1.899-25.568-2.92-30.671l-76.45,4.422c-0.539,5.726,1.758,29.99,3.628,49.606
			c0.907,9.553,1.701,17.972,2.041,22.649C590.031,299.509,590.06,300.019,590.116,300.671z M659.594,208.261l-77.018,4.564
			c-0.34,0.028-0.623-0.227-0.651-0.567v-0.028l-2.693-52.214c0-0.34,0.255-0.624,0.596-0.652l76.847-7.739
			c0.34-0.028,0.652,0.227,0.681,0.567v0.028l2.806,55.389C660.189,207.95,659.934,208.233,659.594,208.261L659.594,208.261z
			 M583.144,211.55l75.741-4.507l-2.749-54.113l-75.601,7.625L583.144,211.55z M572.74,213.279h-0.028h-0.028
			c-1.899,0.793-17.915,2.098-34.753,3.146c-18.51,1.162-38.069,2.013-40.876,1.587c-0.255-0.028-0.453-0.227-0.51-0.454
			c-1.332-4.507-2.296-20.636-2.778-28.999l-0.17-2.919c-0.028-0.284-0.085-1.163-0.198-2.325
			c-0.312-4.45-0.992-13.209-0.709-13.833v-0.057c1.248-2.806,6.974-3.033,11.367-3.203c1.105-0.057,2.126-0.085,2.948-0.17
			c2.041-0.199,5.924-0.596,10.8-1.105c17.234-1.758,46.715-4.762,51.619-4.507c0.312,0,0.566,0.255,0.595,0.567l3.062,51.647
			C573.108,212.938,572.967,213.166,572.74,213.279z M537.846,215.178c15.931-0.992,31.039-2.183,33.959-2.919L568.8,161.66
			c-6.18-0.028-34.242,2.835-50.882,4.536c-4.79,0.51-8.646,0.879-10.8,1.105c-0.851,0.057-1.899,0.113-3.005,0.17
			c-4.082,0.142-9.383,0.369-10.262,2.466l-0.028,0.028c-0.142,0.34,0.511,8.901,0.851,13.238c0.057,1.134,0.142,1.984,0.17,2.381
			l0.17,2.92c0.482,8.079,1.39,23.499,2.608,28.318C501.478,217.134,520.129,216.283,537.846,215.178z M404.016,221.934
			l-6.229-48.164L404.016,221.934z"/>
	</g>
	<g transform="matrix(0.0888372 0.996046 -0.996046 0.0888372 29987.3 -14170)">
		<text transform="matrix(1 0 0 1 11720.7031 30666.1523)" fill="#FEFEFE" font-family="'MyriadPro-Regular'" font-size="12.3749">Av. Scalabrini Ortiz</text>
	</g>
	<g transform="matrix(0.99899 -0.0449438 0.0449438 0.99899 -2329.37 -5948.76)">
		<text transform="matrix(1 0 0 1 2596.5476 6296.9585)" fill="#FEFEFE" font-family="'MyriadPro-Regular'" font-size="12.3749">Andres Lamas</text>
	</g>
</g>
</svg>
